<svg xmlns="http://www.w3.org/2000/svg" viewBox="-1 -9 48 48"><defs><clipPath id="LM"><path d="M10 0H46L36 30H0Z"/></clipPath></defs><path d="M10 0H46L36 30H0Z" fill="#e10600"/><g clip-path="url(#LM)" fill="#fff"><rect x="24" y="0" width="6" height="5" opacity="0.3"/><rect x="36" y="0" width="6" height="5" opacity="0.8"/><rect x="30" y="5" width="6" height="5" opacity="0.55"/><rect x="42" y="5" width="6" height="5" opacity="1"/><rect x="24" y="10" width="6" height="5" opacity="0.3"/><rect x="36" y="10" width="6" height="5" opacity="0.8"/><rect x="30" y="15" width="6" height="5" opacity="0.55"/><rect x="42" y="15" width="6" height="5" opacity="1"/><rect x="24" y="20" width="6" height="5" opacity="0.3"/><rect x="36" y="20" width="6" height="5" opacity="0.8"/><rect x="30" y="25" width="6" height="5" opacity="0.55"/><rect x="42" y="25" width="6" height="5" opacity="1"/></g></svg>